<?xml version="1.0" encoding="UTF-8" standalone="no"?>
<svg
   width="900"
   height="900"
   viewBox="0 0 900 900"
   role="img"
   aria-labelledby="title"
   version="1.1"
   id="svg15"
   xmlns="http://www.w3.org/2000/svg"
   xmlns:svg="http://www.w3.org/2000/svg">
  <defs
     id="defs19" />
  <title
     id="title">My Drink Family stacked logo</title>
  <g
     text-anchor="middle"
     id="g13">
    <path
       fill="#b9934e"
       d="m 450,95 17,56 56,17 -56,17 -17,56 -17,-56 -56,-17 56,-17 z"
       id="path3" />
    <g
       aria-label="MY DRINK"
       id="text5"
       style="font-size:112px;font-family:'Nimbus Roman';letter-spacing:14;fill:#292827">
      <path
         d="m 214.51991,315.856 h -22.288 l -24.752,56.56 -25.872,-56.56 h -22.176 v 2.128 c 9.184,0.448 10.416,1.68 10.64,10.08 v 45.472 c -0.224,11.872 -1.68,13.776 -10.864,14.336 V 390 h 26.32 v -2.128 c -8.624,-0.448 -10.304,-2.8 -10.528,-14.336 V 328.4 l 28.112,61.6 h 1.568 l 28.672,-64.176 v 50.736 c -0.112,9.52 -1.344,10.752 -10.192,11.312 V 390 h 31.36 v -2.128 c -8.064,-0.448 -9.52,-2.016 -9.744,-10.08 v -49.728 c 0.224,-8.064 1.568,-9.52 9.744,-10.08 z"
         id="path21" />
      <path
         d="m 311.17599,315.856 h -24.528 v 2.128 c 5.824,0.112 7.728,1.008 7.728,3.696 0,1.12 -0.448,2.464 -1.568,4.144 l -16.016,25.312 -16.576,-24.864 c -1.232,-1.792 -1.904,-3.696 -1.904,-4.928 0,-2.128 1.568,-3.024 5.152,-3.248 0.448,0 1.568,0 2.8,-0.112 v -2.128 h -31.36 v 2.128 c 5.376,0.224 6.944,1.792 18.144,17.584 l 14.672,21.504 v 19.488 c -0.112,9.856 -1.12,10.864 -11.312,11.312 V 390 h 34.272 v -2.128 c -9.968,-0.224 -11.424,-1.456 -11.536,-10.08 v -21.728 l 16.576,-25.312 c 6.832,-9.856 9.744,-12.32 15.456,-12.768 z"
         id="path23" />
      <path
         d="m 371.096,390 h 31.808 c 12.992,0 24.752,-3.696 31.696,-9.968 7.28,-6.608 11.424,-16.576 11.424,-27.44 0,-10.08 -3.248,-18.816 -9.52,-24.976 -7.616,-7.728 -19.824,-11.76 -35.168,-11.76 h -30.24 v 2.128 c 8.848,0.784 9.744,1.68 9.856,10.08 v 49.728 c -0.112,8.176 -1.456,9.52 -9.856,10.08 z m 21.28,-65.632 c 0,-3.472 1.12,-4.368 5.824,-4.368 9.744,0 16.912,1.792 22.288,5.6 8.736,6.048 13.328,15.68 13.328,27.776 0,13.216 -4.592,22.624 -13.664,27.888 -5.712,3.248 -12.208,4.592 -21.952,4.592 -4.48,0 -5.824,-1.008 -5.824,-4.592 z"
         id="path25" />
      <path
         d="m 537.97601,387.872 c -4.256,-0.336 -6.496,-1.456 -9.744,-5.264 l -23.072,-28.336 c 14.224,-2.8 20.272,-8.4 20.272,-18.704 0,-4.816 -1.456,-8.96 -4.368,-12.208 -4.256,-4.592 -13.664,-7.504 -24.08,-7.504 h -30.912 v 2.128 c 8.288,0.896 9.408,1.904 9.52,10.08 v 48.496 c -0.112,9.52 -1.12,10.64 -9.52,11.312 V 390 h 31.024 v -2.128 c -8.624,-0.56 -9.968,-1.904 -10.08,-10.08 v -22.064 l 6.272,-0.224 26.656,34.496 h 18.032 z m -50.96,-63.84 c 0,-3.136 1.232,-4.032 5.712,-4.032 14,0 20.496,4.816 20.496,15.344 0,5.6 -2.352,10.304 -6.384,12.432 -5.152,2.912 -9.072,3.584 -19.824,3.808 z"
         id="path27" />
      <path
         d="m 557.12805,390 h 33.264 v -2.128 c -9.184,-0.224 -10.752,-1.792 -10.976,-10.08 v -49.728 c 0.224,-8.4 1.68,-9.744 10.976,-10.08 v -2.128 h -33.264 v 2.128 c 9.52,0.56 10.752,1.68 10.864,10.08 v 49.728 c -0.112,8.512 -1.456,9.744 -10.864,10.08 z"
         id="path29" />
      <path
         d="m 685.59207,315.856 h -26.32 v 2.128 c 8.96,0.56 10.416,2.464 10.752,14.336 v 37.744 l -43.12,-54.208 h -19.152 v 2.128 c 4.816,0 6.384,0.896 10.864,6.16 v 49.392 c -0.224,11.872 -1.68,13.776 -10.864,14.336 V 390 h 26.32 v -2.128 c -8.624,-0.448 -10.304,-2.8 -10.528,-14.336 v -43.904 l 49.504,61.6 h 1.904 V 332.32 c 0.336,-11.648 1.792,-13.552 10.64,-14.336 z"
         id="path31" />
      <path
         d="m 747.52811,317.984 c 6.72,0.336 7.616,0.784 7.616,3.472 0,2.464 -2.576,5.824 -8.736,11.536 l -19.824,18.032 v -22.96 c 0.112,-8.4 1.232,-9.408 10.304,-10.08 v -2.128 h -31.808 v 2.128 c 8.624,0.56 9.856,1.904 10.08,10.08 v 48.496 c -0.112,9.52 -1.344,10.752 -10.08,11.312 V 390 h 31.584 v -2.128 c -8.624,-0.56 -9.968,-1.792 -10.08,-10.08 v -20.944 l 2.912,-2.352 11.872,11.76 c 8.624,8.624 14.56,16.352 14.56,19.04 0,1.68 -1.456,2.352 -4.704,2.464 -0.56,0 -1.792,0 -3.136,0.112 V 390 h 34.16 v -2.128 c -5.824,-0.112 -7.392,-1.232 -17.584,-12.096 l -26.096,-28 21.28,-21.056 c 7.616,-7.28 9.408,-8.176 17.024,-8.736 v -2.128 h -29.344 z"
         id="path33" />
    </g>
    <g
       aria-label="FAMILY"
       id="text7"
       style="font-size:112px;font-family:'Nimbus Roman';letter-spacing:14;fill:#292827">
      <path
         d="m 263.46402,494.128 v -25.984 h -2.576 c -1.232,8.848 -3.136,10.416 -12.32,10.64 h -16.24 V 453.92 c 0.112,-3.36 0.448,-3.696 3.584,-3.808 h 15.232 c 12.992,0.224 15.232,1.792 17.024,11.76 h 2.8 l -0.336,-16.016 h -59.472 v 2.128 c 8.176,0.56 9.52,2.016 9.744,10.08 v 48.496 c -0.112,9.52 -1.232,10.752 -9.744,11.312 V 520 h 31.36 v -2.128 c -8.512,-0.336 -10.08,-1.904 -10.192,-10.08 v -24.416 h 16.24 c 9.184,0.112 10.976,1.68 12.32,10.752 z"
         id="path36" />
      <path
         d="m 357.43197,517.872 c -5.04,-0.336 -6.16,-1.456 -10.08,-9.744 l -27.888,-63.616 h -2.24 l -23.296,54.992 c -7.168,16.352 -8.512,18.144 -13.888,18.368 V 520 h 22.176 v -2.128 c -5.376,0 -7.616,-1.344 -7.616,-4.592 0,-1.344 0.336,-2.912 0.896,-4.368 l 5.152,-13.104 h 29.344 l 4.592,10.752 c 1.344,3.024 2.128,5.936 2.128,7.504 0,2.8 -1.904,3.696 -7.84,3.808 V 520 h 28.56 z m -54.88,-26.656 12.88,-30.8 12.992,30.8 z"
         id="path38" />
      <path
         d="m 469.87998,445.856 h -22.288 l -24.752,56.56 -25.872,-56.56 h -22.176 v 2.128 c 9.184,0.448 10.416,1.68 10.64,10.08 v 45.472 c -0.224,11.872 -1.68,13.776 -10.864,14.336 V 520 h 26.32 v -2.128 c -8.624,-0.448 -10.304,-2.8 -10.528,-14.336 V 458.4 l 28.112,61.6 h 1.568 l 28.672,-64.176 v 50.736 c -0.112,9.52 -1.344,10.752 -10.192,11.312 V 520 h 31.36 v -2.128 c -8.064,-0.448 -9.52,-2.016 -9.744,-10.08 v -49.728 c 0.224,-8.064 1.568,-9.52 9.744,-10.08 z"
         id="path40" />
      <path
         d="m 488.80798,520 h 33.264 v -2.128 c -9.184,-0.224 -10.752,-1.792 -10.976,-10.08 v -49.728 c 0.224,-8.4 1.68,-9.744 10.976,-10.08 v -2.128 h -33.264 v 2.128 c 9.52,0.56 10.752,1.68 10.864,10.08 v 49.728 c -0.112,8.512 -1.456,9.744 -10.864,10.08 z"
         id="path42" />
      <path
         d="m 571.016,445.856 h -31.584 v 2.128 c 8.176,0.56 9.52,2.016 9.744,10.08 v 49.728 c -0.224,8.064 -1.68,9.632 -9.744,10.08 V 520 h 60.256 l 5.376,-19.488 h -2.8 c -5.264,11.76 -10.08,14.672 -24.528,15.12 h -7.504 c -8.624,-0.224 -9.52,-0.56 -9.632,-4.592 v -52.976 c 0.224,-8.176 1.68,-9.632 10.416,-10.08 z"
         id="path44" />
      <path
         d="m 688.05596,445.856 h -24.528 v 2.128 c 5.824,0.112 7.728,1.008 7.728,3.696 0,1.12 -0.448,2.464 -1.568,4.144 l -16.016,25.312 -16.576,-24.864 c -1.232,-1.792 -1.904,-3.696 -1.904,-4.928 0,-2.128 1.568,-3.024 5.152,-3.248 0.448,0 1.568,0 2.8,-0.112 v -2.128 h -31.36 v 2.128 c 5.376,0.224 6.944,1.792 18.144,17.584 l 14.672,21.504 v 19.488 c -0.112,9.856 -1.12,10.864 -11.312,11.312 V 520 h 34.272 v -2.128 c -9.968,-0.224 -11.424,-1.456 -11.536,-10.08 v -21.728 l 16.576,-25.312 c 6.832,-9.856 9.744,-12.32 15.456,-12.768 z"
         id="path46" />
    </g>
    <path
       id="line9"
       style="stroke:#b9934e;stroke-width:5"
       d="M 245,585 H 655" />
    <g
       aria-label="CATEGORY PIONEER SINCE 2011"
       id="text11"
       style="font-size:36px;font-family:'Nimbus Sans Narrow';letter-spacing:12;fill:#292827">
      <path
         d="m 77.225737,651.928 c -0.252,-2.016 -0.576,-3.024 -1.368,-4.356 -1.512,-2.628 -4.14,-4.104 -7.308,-4.104 -6.084,0 -9.9,5.256 -9.9,13.644 0,8.316 3.708,13.572 9.54,13.572 2.34,0 4.536,-0.9 6.12,-2.592 1.62,-1.656 2.412,-3.528 3.132,-7.596 h -2.772 c -0.432,2.232 -0.792,3.276 -1.548,4.428 -1.188,1.764 -2.7,2.628 -4.68,2.628 -4.32,0 -6.84,-3.78 -6.84,-10.332 0,-6.66 2.628,-10.62 7.02,-10.62 1.476,0 2.844,0.504 3.852,1.368 1.044,0.936 1.512,1.908 1.98,3.96 z"
         id="path50" />
      <path
         d="m 103.8058,662.476 2.088,7.524 h 3.132 l -7.668,-25.848 h -3.275995 l -7.956,25.848 h 2.952 l 2.232,-7.524 z m -7.631995,-3.132 3.42,-11.448 3.167995,11.448 z"
         id="path52" />
      <path
         d="m 119.22582,647.284 h 7.2 V 670 h 2.88 v -22.716 h 7.164 v -3.132 h -17.244 z"
         id="path54" />
      <path
         d="m 166.72177,666.868 h -12.744 V 658.3 h 11.556 v -3.132 h -11.556 v -7.884 h 12.528 v -3.132 h -15.408 V 670 h 15.624 z"
         id="path56" />
      <path
         d="m 191.7178,659.164 h 6.588 c -0.036,3.096 -0.504,4.68 -1.692,6.192 -1.26,1.584 -2.88,2.34 -4.86,2.34 -4.68,0 -7.164,-3.6 -7.164,-10.404 0,-6.588 2.736,-10.692 7.092,-10.692 1.512,0 3.024,0.504 4.032,1.404 1.116,0.936 1.656,1.908 2.16,3.996 h 2.772 c -0.288,-1.98 -0.612,-2.988 -1.368,-4.248 -1.62,-2.664 -4.464,-4.284 -7.632,-4.284 -5.976,0 -10.008,5.616 -10.008,13.932 0,4.428 1.044,7.668 3.348,10.368 1.692,2.016 3.672,2.916 6.336,2.916 1.62,0 3.06,-0.396 4.428,-1.224 1.116,-0.72 1.728,-1.332 2.736,-2.808 l 0.648,3.348 h 1.872 v -13.824 h -9.288 z"
         id="path58" />
      <path
         d="m 226.82982,643.468 c -3.06,0 -5.508,1.116 -7.272,3.276 -2.052,2.52 -3.204,6.264 -3.204,10.368 0,4.032 1.152,7.704 3.204,10.296 1.692,2.124 4.212,3.276 7.128,3.276 2.916,0 5.436,-1.152 7.128,-3.276 2.052,-2.592 3.204,-6.264 3.204,-10.296 0,-2.88 -0.612,-5.724 -1.692,-7.992 -1.8,-3.708 -4.752,-5.652 -8.496,-5.652 z m -0.036,3.132 c 4.32,0 7.272,4.248 7.272,10.476 0,6.3 -2.952,10.476 -7.38,10.476 -4.428,0 -7.38,-4.176 -7.38,-10.44 0,-6.408 2.916,-10.512 7.488,-10.512 z"
         id="path60" />
      <path
         d="m 255.64184,658.912 h 6.948 c 2.664,0.036 3.78,1.404 3.78,4.608 0,2.736 0.216,5.436 0.468,6.48 h 3.528 v -0.576 c -0.864,-0.612 -1.008,-1.008 -1.08,-2.592 l -0.144,-4.68 c -0.18,-2.952 -0.72,-3.996 -2.556,-4.86 2.196,-1.656 2.952,-3.204 2.952,-6.156 0,-4.572 -2.412,-6.984 -6.948,-6.984 h -9.828 V 670 h 2.88 z m 0,-11.772 h 7.128 c 2.556,0 3.816,1.404 3.816,4.284 0,3.096 -1.368,4.5 -4.32,4.5 h -6.624 z"
         id="path62" />
      <path
         d="m 293.63387,659.596 7.992,-15.444 h -3.348 l -6.12,12.42 -6.084,-12.42 h -3.312 l 7.992,15.444 V 670 h 2.88 z"
         id="path64" />
      <path
         d="m 339.70191,659.092 h 6.624 c 3.816,0 6.3,-3.024 6.3,-7.632 0,-4.392 -2.52,-7.308 -6.3,-7.308 h -9.504 V 670 h 2.88 z m 0,-11.952 h 5.76 c 2.844,0 4.212,1.44 4.212,4.428 0,3.024 -1.44,4.536 -4.32,4.536 h -5.652 z"
         id="path66" />
      <path
         d="m 370.63794,644.152 h -2.844 V 670 h 2.844 z"
         id="path68" />
      <path
         d="m 396.92998,643.468 c -3.06,0 -5.508,1.116 -7.272,3.276 -2.052,2.52 -3.204,6.264 -3.204,10.368 0,4.032 1.152,7.704 3.204,10.296 1.692,2.124 4.212,3.276 7.128,3.276 2.916,0 5.436,-1.152 7.128,-3.276 2.052,-2.592 3.204,-6.264 3.204,-10.296 0,-2.88 -0.612,-5.724 -1.692,-7.992 -1.8,-3.708 -4.752,-5.652 -8.496,-5.652 z m -0.036,3.132 c 4.32,0 7.272,4.248 7.272,10.476 0,6.3 -2.952,10.476 -7.38,10.476 -4.428,0 -7.38,-4.176 -7.38,-10.44 0,-6.408 2.916,-10.512 7.488,-10.512 z"
         id="path70" />
      <path
         d="m 436.578,665.14 -10.692,-20.988 h -3.384 V 670 h 2.772 V 649.012 L 436.146,670 h 3.204 v -25.848 h -2.772 z"
         id="path72" />
      <path
         d="m 471.76201,666.868 h -12.744 V 658.3 h 11.556 v -3.132 h -11.556 v -7.884 h 12.528 v -3.132 h -15.408 V 670 h 15.624 z"
         id="path74" />
      <path
         d="m 503.45406,666.868 h -12.744 V 658.3 h 11.556 v -3.132 h -11.556 v -7.884 h 12.528 v -3.132 h -15.408 V 670 h 15.624 z"
         id="path76" />
      <path
         d="m 522.4381,658.912 h 6.948 c 2.664,0.036 3.78,1.404 3.78,4.608 0,2.736 0.216,5.436 0.468,6.48 h 3.528 v -0.576 c -0.864,-0.612 -1.008,-1.008 -1.08,-2.592 l -0.144,-4.68 c -0.18,-2.952 -0.72,-3.996 -2.556,-4.86 2.196,-1.656 2.952,-3.204 2.952,-6.156 0,-4.572 -2.412,-6.984 -6.948,-6.984 h -9.828 V 670 h 2.88 z m 0,-11.772 h 7.128 c 2.556,0 3.816,1.404 3.816,4.284 0,3.096 -1.368,4.5 -4.32,4.5 h -6.624 z"
         id="path78" />
      <path
         d="m 588.19812,651.712 c -0.18,-2.304 -0.432,-3.384 -1.08,-4.644 -1.26,-2.304 -3.708,-3.6 -6.912,-3.6 -2.556,0 -4.5,0.792 -5.796,2.412 -1.116,1.44 -1.764,3.384 -1.764,5.472 0,3.276 1.512,5.364 4.5,6.192 l 4.356,1.224 c 3.492,1.008 4.5,1.98 4.5,4.464 0,2.844 -1.98,4.464 -5.436,4.464 -2.376,0 -4.14,-0.864 -5.112,-2.52 -0.576,-0.972 -0.792,-1.836 -0.828,-3.528 h -2.7 c 0.036,2.772 0.432,4.284 1.548,5.796 1.62,2.268 3.708,3.24 6.948,3.24 5.22,0 8.352,-2.916 8.352,-7.776 0,-3.672 -1.656,-6.084 -4.824,-6.948 l -6.048,-1.692 c -1.728,-0.468 -2.484,-1.512 -2.484,-3.348 0,-2.808 1.764,-4.464 4.788,-4.464 1.98,0 3.564,0.792 4.464,2.196 0.504,0.864 0.72,1.62 0.828,3.06 z"
         id="path80" />
      <path
         d="m 607.7222,644.152 h -2.844 V 670 h 2.844 z"
         id="path82" />
      <path
         d="m 638.69421,665.14 -10.692,-20.988 h -3.384 V 670 h 2.772 v -20.988 l 10.872,20.988 h 3.204 v -25.848 h -2.772 z"
         id="path84" />
      <path
         d="m 675.64224,651.928 c -0.252,-2.016 -0.576,-3.024 -1.368,-4.356 -1.512,-2.628 -4.14,-4.104 -7.308,-4.104 -6.084,0 -9.9,5.256 -9.9,13.644 0,8.316 3.708,13.572 9.54,13.572 2.34,0 4.536,-0.9 6.12,-2.592 1.62,-1.656 2.412,-3.528 3.132,-7.596 h -2.772 c -0.432,2.232 -0.792,3.276 -1.548,4.428 -1.188,1.764 -2.7,2.628 -4.68,2.628 -4.32,0 -6.84,-3.78 -6.84,-10.332 0,-6.66 2.628,-10.62 7.02,-10.62 1.476,0 2.844,0.504 3.852,1.368 1.044,0.936 1.512,1.908 1.98,3.96 z"
         id="path86" />
      <path
         d="m 707.26231,666.868 h -12.744 V 658.3 h 11.556 v -3.132 h -11.556 v -7.884 h 12.528 v -3.132 h -15.408 V 670 h 15.624 z"
         id="path88" />
      <path
         d="m 744.87034,653.764 c 0.216,-4.392 1.476,-6.264 4.212,-6.264 2.484,0 4.104,1.836 4.104,4.716 0,1.296 -0.324,2.412 -0.936,3.276 -0.468,0.684 -1.152,1.296 -2.88,2.52 l -2.772,1.944 c -3.24,2.34 -4.68,5.328 -4.86,10.044 h 14.22 v -2.988 h -11.304 c 0.216,-1.728 1.512,-3.456 3.6,-4.86 l 2.16,-1.44 c 2.268,-1.512 3.276,-2.412 4.068,-3.456 1.008,-1.404 1.476,-2.988 1.476,-4.968 0,-4.572 -2.664,-7.596 -6.66,-7.596 -2.484,0 -4.608,1.188 -5.724,3.168 -0.9,1.548 -1.224,2.988 -1.296,5.904 z"
         id="path90" />
      <path
         d="m 777.67835,644.692 c -4.608,0 -7.2,4.644 -7.2,12.96 0,8.316 2.556,13.032 7.128,13.032 4.536,0 7.128,-4.716 7.128,-12.96 0,-8.244 -2.592,-13.032 -7.056,-13.032 z m -0.036,2.808 c 2.808,0 4.32,3.564 4.32,10.152 0,6.696 -1.512,10.224 -4.356,10.224 -2.88,0 -4.356,-3.492 -4.356,-10.224 0,-6.696 1.512,-10.152 4.392,-10.152 z"
         id="path92" />
      <path
         d="m 808.39831,644.692 h -2.016 c -0.828,3.744 -1.728,4.536 -5.58,4.824 v 2.52 h 4.824 V 670 h 2.772 z"
         id="path94" />
      <path
         d="m 836.81426,644.692 h -2.016 c -0.828,3.744 -1.728,4.536 -5.58,4.824 v 2.52 h 4.824 V 670 h 2.772 z"
         id="path96" />
    </g>
  </g>
</svg>
