<?xml version="1.0" encoding="UTF-8" standalone="no"?>
<svg
   width="1400"
   height="320"
   viewBox="0 0 1400 320"
   role="img"
   aria-labelledby="title desc"
   version="1.1"
   id="svg14"
   xmlns="http://www.w3.org/2000/svg"
   xmlns:svg="http://www.w3.org/2000/svg">
  <defs
     id="defs18" />
  <title
     id="title">MyMule logo</title>
  <desc
     id="desc">MyMule, a My Drink Family brand house</desc>
  <g
     id="g12">
    <g
       aria-label="my"
       id="text4"
       style="font-size:190px;font-family:Z003;fill:#b9934e">
      <path
         d="m 62.48,187.9 13.49,-5.13 12.16,-46.17 c 12.35,-8.55 20.52,-13.11 22.99,-13.11 1.52,0 2.47,1.52 2.47,4.18 0,5.7 -7.22,34.39 -15.2,60.23 l 14.44,-5.13 11.78,-47.5 c 10.83,-7.03 21.09,-12.73 23.37,-12.73 1.71,0 2.47,1.33 2.47,3.61 0,4.18 -1.71,12.73 -6.84,32.3 -2.85,11.78 -3.8,16.53 -3.8,20.9 0,3.99 0.95,6.08 4.56,8.55 11.02,-5.51 21.66,-12.35 32.11,-20.71 l 0.19,-4.37 c -16.15,9.88 -16.15,9.88 -18.81,9.88 -2.09,0 -3.42,-1.9 -3.42,-4.94 0,-4.37 2.28,-14.44 6.27,-28.5 6.08,-21.09 7.22,-25.46 7.22,-28.5 0,-1.9 -0.95,-2.85 -3.04,-2.85 -3.42,0 -15.2,6.08 -38.38,19.76 0.76,-3.42 0.76,-3.42 2.47,-10.83 0.76,-2.85 1.33,-6.08 1.33,-6.84 0,-1.33 -0.95,-2.09 -2.47,-2.09 -3.23,0 -10.45,3.99 -37.81,21.28 3.04,-12.92 3.99,-17.29 3.99,-18.62 0,-1.71 -1.14,-2.66 -2.85,-2.66 -1.9,0 -3.99,1.14 -13.49,6.46 -12.54,7.22 -12.54,7.22 -15.96,9.5 l -1.33,5.32 c 10.07,-5.13 11.78,-5.7 14.06,-5.7 1.52,0 2.66,1.52 2.66,3.61 0,2.85 -0.57,5.32 -8.17,35.53 -1.71,6.08 -3.23,12.35 -4.75,18.62 z"
         id="path20" />
      <path
         d="m 167.74004,231.79 c 6.08,0.76 14.06,1.33 20.9,1.33 13.3,0 20.71,-3.61 31.73,-15.2 11.02,-11.97 11.78,-13.87 18.43,-44.84 6.65,-30.4 10.26,-44.46 16.72,-65.93 -2.47,1.33 -4.56,2.47 -5.32,2.85 l -6.65,3.23 c -1.71,0.76 -2.85,1.33 -4.18,2.09 l -1.71,6.84 -3.99,15.58 -3.8,15.58 -2.09,8.17 c -19,11.78 -19.95,12.35 -23.37,12.35 -2.28,0 -3.99,-2.47 -3.99,-6.08 0,-5.32 1.52,-12.16 8.17,-37.24 4.56,-19 4.56,-19 4.56,-20.33 0,-1.33 -0.95,-2.28 -2.09,-2.28 -2.09,0 -14.06,6.27 -30.21,15.77 l -0.57,5.13 c 9.5,-4.75 11.02,-5.32 13.11,-5.32 1.9,0 2.85,0.95 2.85,2.85 0,3.42 -1.33,8.93 -5.89,25.84 -4.75,17.29 -5.51,20.52 -5.51,25.65 0,6.27 2.85,10.64 6.65,10.64 2.28,0 4.94,-1.33 11.4,-5.32 16.34,-10.26 16.34,-10.26 24.32,-15.96 l -2.09,10.07 c -5.7,27.17 -6.65,30.59 -8.93,35.53 -3.23,6.65 -9.12,9.5 -19.76,9.5 -5.7,0 -9.88,-0.76 -21.09,-3.42 z"
         id="path22" />
    </g>
    <g
       aria-label="MULE"
       id="text6"
       style="font-size:164px;font-family:'Nimbus Roman';letter-spacing:5;fill:#292827">
      <path
         d="m 396.532,81.432 h -32.636 l -36.244,82.82 -37.884,-82.82 h -32.472 v 3.116 c 13.448,0.656 15.252,2.46 15.58,14.76 v 66.584 c -0.328,17.384 -2.46,20.172 -15.908,20.992 V 190 h 38.54 v -3.116 c -12.628,-0.656 -15.088,-4.1 -15.416,-20.992 V 99.8 l 41.164,90.2 h 2.296 l 41.984,-93.972 v 74.292 c -0.164,13.94 -1.968,15.744 -14.924,16.564 V 190 h 45.92 v -3.116 c -11.808,-0.656 -13.94,-2.952 -14.268,-14.76 V 99.308 c 0.328,-11.808 2.296,-13.94 14.268,-14.76 z"
         id="path25" />
      <path
         d="m 521.41599,81.432 h -38.048 v 3.116 c 12.628,0.82 15.088,4.1 15.416,20.992 v 44.28 c 0,11.152 -0.984,17.384 -3.772,22.304 -4.428,7.872 -14.924,12.956 -27.224,12.956 -11.644,0 -19.68,-3.936 -24.108,-11.644 -2.952,-5.248 -4.1,-11.316 -4.1,-21.648 v -52.48 c 0.164,-11.972 1.804,-13.612 14.924,-14.76 v -3.116 h -46.412 v 3.116 c 12.956,0.984 14.596,2.624 14.76,14.76 v 51.168 c 0,28.372 13.284,41.82 41.164,41.82 17.876,0 30.176,-5.74 36.572,-16.892 3.936,-6.888 5.412,-14.432 5.412,-27.06 V 105.54 c 0.328,-17.22 2.132,-19.516 15.416,-20.992 z"
         id="path27" />
      <path
         d="m 577.42001,81.432 h -46.248 v 3.116 c 11.972,0.82 13.94,2.952 14.268,14.76 v 72.816 c -0.328,11.808 -2.46,14.104 -14.268,14.76 V 190 h 88.232 l 7.872,-28.536 h -4.1 c -7.708,17.22 -14.76,21.484 -35.916,22.14 h -10.988 c -12.628,-0.328 -13.94,-0.82 -14.104,-6.724 V 99.308 c 0.328,-11.972 2.46,-14.104 15.252,-14.76 z"
         id="path29" />
      <path
         d="m 732.31602,162.284 h -4.592 c -7.872,17.384 -15.252,21.484 -38.704,21.648 h -4.428 c -17.056,-0.492 -17.22,-0.656 -17.22,-7.052 v -40.508 h 25.256 c 13.776,0.328 15.908,2.296 18.04,15.744 h 3.772 v -38.048 h -3.772 c -1.968,13.284 -4.264,15.252 -18.04,15.58 h -25.256 V 93.24 c 0.164,-4.92 0.82,-5.576 5.412,-5.576 h 22.14 c 19.024,0.328 22.304,2.624 24.928,17.22 h 4.1 l -0.492,-23.452 h -87.084 v 3.116 c 11.972,0.82 13.94,2.952 14.268,14.76 v 72.816 c -0.328,11.808 -2.46,14.104 -14.268,14.76 V 190 h 88.56 z"
         id="path31" />
    </g>
    <path
       id="line8"
       style="stroke:#b9934e;stroke-width:3"
       d="M 258,225 H 1290" />
    <g
       aria-label="MULE"
       id="text10"
       style="font-size:31px;font-family:'Nimbus Sans Narrow';letter-spacing:10;fill:#292827">
      <path
         d="m 281.344,270 v -22.258 h -3.503 l -5.208,18.91 -5.239,-18.91 H 263.86 V 270 h 2.387 v -13.144 c -0.031,-2.449 -0.031,-3.007 -0.062,-5.704 L 271.393,270 h 2.418 l 5.208,-18.879 c -0.031,3.441 -0.062,4.588 -0.062,5.735 V 270 Z"
         id="path35" />
      <path
         d="m 307.06102,247.742 v 14.074 c 0,3.875 -1.736,6.076 -4.743,6.076 -2.976,0 -4.65,-2.201 -4.65,-6.138 v -14.012 h -2.48 v 14.849 c 0,4.898 2.728,7.998 7.037,7.998 4.464,0 7.316,-3.286 7.316,-8.401 v -14.446 z"
         id="path37" />
      <path
         d="m 325.92705,247.742 h -2.48 V 270 h 11.718 v -2.697 h -9.238 z"
         id="path39" />
      <path
         d="m 361.31603,267.303 h -10.974 v -7.378 h 9.951 v -2.697 h -9.951 v -6.789 h 10.788 v -2.697 h -13.268 V 270 h 13.454 z"
         id="path41" />
    </g>
  </g>
</svg>
